<?xml version="1.0" encoding="utf-8"?>
<!-- Generator: Adobe Illustrator 24.0.1, SVG Export Plug-In . SVG Version: 6.00 Build 0)  -->
<svg version="1.1" id="Layer_1" xmlns="http://www.w3.org/2000/svg" xmlns:xlink="http://www.w3.org/1999/xlink" x="0px" y="0px"
	 viewBox="0 0 1391 323.4" style="enable-background:new 0 0 1391 323.4;" xml:space="preserve">
<style type="text/css">
	.st0{fill:#FFF200;}
	.st1{fill:#ED1C24;}
	.st2{fill:#FFFFFF;}
</style>
<title>OD_Logo_Horizontal</title>
<path class="st0" d="M644.4,200.9c0,28.6,11.7,42.9,23.5,42.9s23.5-14.3,23.5-42.9V86.7h-46.9V200.9z"/>
<path class="st0" d="M1329.5,251.1c-0.5-7.5-3.9-14.5-9.5-19.5v-69c0-17.7-4.4-33.3-13.1-46.5c-7.3-10.9-17.2-19.8-28.7-25.9
	c-8.2-4.4-17-7.5-26.1-9.4c-2.6-0.6-4.9-0.9-6.9-1.2c4.1-10.3,1.7-22.1-6.2-30l-29.3-29.3c-8.9-8.9-22.6-10.7-33.4-4.5l-47.7,27.4
	c-12.8,7.3-17.7,23.4-11.1,36.6h-92.3c-2.1,0-4.2,0.2-6.3,0.7c4.2-10.3,1.8-22.2-6.1-30.1l-29.3-29.3c-9.1-9.1-23.3-10.8-34.3-4
	L903,45.8c-13.1,8.1-17.1,25.2-9,38.2c1,1.6,2.2,3.2,3.5,4.6c-1.3,1.6-2.5,3.4-3.4,5.2l-7.3-7.3c-9.7-9.7-25.1-10.9-36.2-2.7
	l-20.9,15.5l-9.6-11.2c-9.2-10.8-25-12.9-36.7-5l-4.1,2.8c0.8-9,3.6-17.7,8.1-25.5c2.5-4.5,5.5-8.7,9-12.5
	c8.4-7.7,11.1-19.8,6.9-30.3C799.1,6.9,788.7-0.1,777.2,0H593.3c-10.6,0-20.3,6.1-25,15.6l-28.6,58.6c-4.2,8.6-3.7,18.8,1.3,27
	c3.6,5.7,9.1,9.9,15.5,11.9v108.4c-4.3,5.1-6.7,11.5-6.7,18.2c0,7.4,2.9,14.4,8.2,19.6l48.4,48.4c10.5,10.5,27.4,10.9,38.4,0.9
	c3.7-0.7,7.5-1,11.3-0.9c26.3,0,49.2-5.4,68.2-16.1c9.7-5.4,18.4-12.4,25.9-20.6c3.5,8,8.5,15.2,14.8,21.2
	c11.8,11.3,27.5,17.6,43.8,17.7c0.8,0,1.6,0,2.4,0c12.1-0.5,24.1-2.9,35.5-7l4.7,3.3c10.9,7.5,25.6,6.3,35.1-3l28.2-27.2l28.2,28.2
	c5.1,5,11.9,8,19,8.1h0.7c6.9,0,13.6-2.6,18.7-7.2l35.7-32.4c4.3,7.8,9.9,14.7,16.7,20.5c14.2,12,33.3,18.7,53.7,18.7
	c0.9,0,1.8,0,2.7,0c14.7-0.4,30.1-4.3,45.8-11.4c4.6-2.1,9.1-4.4,13.5-7l14.1,12.5c10.3,9.2,25.8,9.4,36.3,0.5l24.7-20.8l21.6,20
	c10.5,9.7,26.6,9.8,37.3,0.4l36.8-32.7C1326.5,267.7,1329.9,259.6,1329.5,251.1z M655.9,279.9c-9.5,0-25.8,1.4-29.9,8.2l-48.3-48.4
	l6.9-6.8V109.6l34.6-23h-54.5l28.6-58.9h183.9c0,0-25.8,24.6-25.8,62.8v14.3l-10.2,6.9c-12.7,8.6-16.1,25.9-7.4,38.6
	c0.3,0.4,0.6,0.9,0.9,1.3l7.8,10.2v70.9C732,254.9,708.3,279.9,655.9,279.9z M867.1,283.2L849.4,271c0,0-15.6,10.1-39.5,11.1
	c-0.4,0-0.8,0-1.2,0c-13.8,0-36-9.2-38.1-43.8c5-12.2,7.9-25.1,8.6-38.3c0-0.2,0-0.3,0-0.5v-79.9l19.9-13.5l23.9,27.9v92
	c0,10.2,5.3,15.3,10.5,15.3s10.5-5.1,10.5-15.3v-73.6l-13.6-19.1l36.8-27.3l14.9,14.9l-7.7,17.5c-6.2,14.1,0.3,30.4,14.3,36.6
	c2.3,1,4.6,1.7,7.1,2v54.3l1.9,2.3c-2.9,6.6-3.2,14-0.8,20.7L867.1,283.2z M962.5,284.6l-29.7-29.8c3-8.3,2-17.6-2.8-25v-79.9h-6.5
	v-15.1c0-7.4-2.9-14.4-8.1-19.6l-0.3-0.2l3.8-8.6H930V81.6l-12.3-12.3l46.3-28.6L993.2,70l-4.8,4.8v34.1h9c0.2,4.4,1.5,8.8,3.7,12.6
	l5.7,9.8c0,2.6,0,5.9,0,9.9l-4.8,9.9H987v73.6l19.8,19.8L962.5,284.6z M1089.3,284.1h-1.9c-25.4,0-52.4-14.7-52.6-52.7
	c-0.2-39-0.2-66.5-0.1-83.9l12.8-26.4c1.9-3.8,2.9-8,2.9-12.3c0-0.4,0-0.9,0-1.4h66.3l8.9,16.1v30.3h-35v63.9
	c0,15.5,8.1,21.3,18.1,21.3c5-0.1,9.8-1.2,14.4-3.2c-8.7,11.6-7,27.9,3.8,37.5l0.6,0.5C1117.7,278.5,1103.9,283.7,1089.3,284.1
	L1089.3,284.1z M1265,285.3l-35.4-32.7l8-6.8c0,0,0.1-54.2,0-76.6c0-12.9-4.2-15.4-7.4-15.4c-1.1,0-2.3,0.3-3.3,0.8
	c-14.4,6.8-14,6.8-14,6.8h0.1v84.4l7.8,6.8l-38.8,32.7l-14.9-13.3c0.3-1.7,0.5-3.4,0.5-5.1v-42.2c0-10.1-5.5-19.4-14.4-24.2v-21.1
	c5.5-2.3,10.1-6.3,13.1-11.5c5-8.5,5.1-19,0.3-27.6l-13.4-23.9V80.9l-10.8-13.6l47.7-27.2l29.3,29.3l-5.4,5.4v44.3l23.8-12.3
	c0,0,54.5,2.7,54.5,55.9v83.1l9.6,6.8L1265,285.3z"/>
<path class="st1" d="M1142.4,67.3l47.7-27.2l29.3,29.3l-5.4,5.4v44.3l23.8-12.3c0,0,54.5,2.7,54.5,55.9v83.1l9.5,6.8l-36.8,32.7
	l-35.4-32.7l8-6.8c0,0,0.1-54.2,0-76.6c0-18.4-8.4-15.7-10.7-14.6c-14.7,6.9-14,6.8-14,6.8v84.5l7.8,6.8l-38.8,32.7l-36.8-32.7
	l8.2-6.8V80.9L1142.4,67.3z"/>
<path class="st1" d="M593.3,27.9h183.9c0,0-25.9,24.5-25.9,62.7v109c0,0-1.4,80.4-95.4,80.4c-9.5,0-25.9,1.4-30,8.2l-48.4-48.4
	l6.8-6.8V109.6l34.7-23.2h-54.5L593.3,27.9z M644.4,200.9c0,57.2,47,57.2,47,0V86.5h-47V200.9z"/>
<path class="st1" d="M756.8,134.7l42.2-28.6l23.8,27.9v92c0,20.4,21.1,20.4,21.1,0v-73.6l-13.6-19.1l36.8-27.3l28.7,28.6v96.7
	l10.9,13.6l-39.6,38.1L849.4,271c0,0-15.6,10.1-39.5,11.1c-14.3,0.6-39.5-9-39.5-49.2v-80.4L756.8,134.7z"/>
<polygon class="st1" points="917.6,69.3 963.9,40.7 993.2,70 988.4,74.8 988.4,108.9 1022.5,108.9 1002,151.1 987,151.1 987,224.7 
	1006.8,244.4 962.5,284.6 923,245.1 929.8,238.3 929.8,149.7 899.8,149.7 918.9,106.1 929.8,106.1 929.8,81.6 "/>
<path class="st1" d="M1025.2,107.5h91.3l25.9,46.3h-51.8v64c0,31.3,32.7,23.2,49,6.8v42.2c0,0-23.9,16.5-50.4,17.2
	c-25.9,0.8-54.3-13.8-54.5-52.6c-0.3-75.2,0-107.6,0-107.6L1025.2,107.5z"/>
<path class="st2" d="M1337.2,203c0-3.2,2.6-5.8,5.8-5.9c3.3-0.1,6,2.4,6.1,5.6c0.1,3.3-2.4,6-5.6,6.1c-0.2,0-0.3,0-0.5,0
	C1339.8,208.9,1337.2,206.2,1337.2,203"/>
<path class="st1" d="M1343,209.4c-3.6,0-6.4-2.9-6.4-6.4s2.9-6.4,6.4-6.4s6.4,2.9,6.4,6.4S1346.6,209.4,1343,209.4L1343,209.4
	 M1343,197.7c-2.9,0.1-5.2,2.6-5.1,5.6c0.1,2.8,2.3,5,5.1,5.1c2.9,0.1,5.4-2.2,5.6-5.1c0.1-2.9-2.2-5.4-5.1-5.6
	C1343.3,197.7,1343.2,197.7,1343,197.7"/>
<path class="st1" d="M1340.6,199.7h2.8c1.4,0,1.9,0.7,1.9,1.9c0.1,0.7-0.3,1.4-1,1.7c0.5,0,1,0.3,1,1.2c0,0.8,0.1,1.6,0.3,1.8h-1
	c-0.2-0.3-0.2-0.7-0.2-1c0-1.2-0.2-1.6-1.2-1.6h-1.5v2.7h-1L1340.6,199.7z M1341.6,202.7h1.7c0.5,0.1,0.9-0.3,1-0.8c0,0,0-0.1,0-0.1
	c0-0.8-0.5-1-1-1h-1.7V202.7z"/>
<polygon class="st1" points="1350.2,207.9 1353.4,199.5 1354.2,199.5 1351,207.9 "/>
<path class="st1" d="M1361.6,204c0-1.1-0.1-2.4-0.1-3.4l0,0c-0.3,0.9-0.6,1.9-1,3l-1.4,3.8h-0.8l-1.3-3.7c-0.4-1.1-0.7-2.1-0.9-3
	l0,0c0,1-0.1,2.3-0.2,3.5l-0.2,3.3h-1l0.5-7.8h1.3l1.3,3.8c0.3,1,0.6,1.8,0.8,2.6l0,0c0.2-0.8,0.5-1.6,0.8-2.6l1.4-3.8h1.3l0.5,7.8
	h-1L1361.6,204z"/>
<path class="st1" d="M1364.4,199.8c0.7-0.1,1.4-0.2,2.1-0.2c1.1-0.1,2.3,0.3,3.2,1c0.8,0.7,1.2,1.7,1.1,2.8c0,1.1-0.4,2.2-1.1,3
	c-1,0.8-2.2,1.2-3.5,1.1c-0.6,0-1.2,0-1.8-0.1L1364.4,199.8z M1365.4,206.7c0.3,0,0.7,0.1,1,0c1.6,0.2,3.1-1,3.3-2.6
	c0-0.2,0-0.4,0-0.7c0-1.8-1-3-3.2-3c-0.4,0-0.8,0-1.2,0.1L1365.4,206.7z"/>
<path class="st0" d="M497.2,235.9l-2.2-2.3V105.5c3.7-4.9,5.7-10.9,5.7-17c0-7.4-3-14.4-8.2-19.6l-35.5-35.4
	c-8.9-8.9-22.6-10.7-33.5-4.5l-42.9,24.5c-12.8,7.3-17.7,23.3-11.1,36.5h-35.4c0.1-0.9,0.1-1.7,0.1-2.6c0.1-7.9-3.2-15.5-9.1-20.8
	l-30-27.3c-8.7-7.9-21.3-9.5-31.7-4l-29.2,15.4c-12.3-25-24.3-39.4-25.7-41c-5.3-6.2-13-9.7-21.1-9.8H61.4
	c-9.8,0-18.9,5.2-23.9,13.6L3.9,69.9c-7.6,12.8-3.8,29.4,8.7,37.5c-5.5,15.5-10,35.8-9.9,61.3c-0.1,14.9,1.5,29.7,4.8,44.3
	c2.8,12.4,7.1,24.5,13,35.8c9.8,18.8,24.4,34.7,42.3,46c21.4,13.2,45.9,20.4,71,20.7h1.8c32.9,0.1,64.3-13.5,86.7-37.5l34,36.6
	c5.2,5.6,12.5,8.8,20.2,8.9h0.1c7.6,0,14.9-3.1,20.2-8.7l18.1-19c2.4,2.4,4.9,4.6,7.7,6.6c4.1,2.9,8.6,5.3,13.3,7
	c9.9,4.2,20.5,6.3,31.2,6.1c13.1,0,27.5-2.7,42.9-7.9h0.1l7.8,7.6c10.9,10.9,28.4,10.9,39.3,0l40-40
	C508,264.4,508,246.8,497.2,235.9L497.2,235.9z M135.4,287.8h-1.6c-12.3,0-102.8-4-103.3-119.2C30.3,115.9,52.2,91,56,84H27.8
	l33.6-56.3h126.3c0,0,11.4,13.3,22.8,37.2c-10.3,10.5-10.6,27.1-0.8,38.1l8.1,9.1V237C200.3,269,170.2,287.8,135.4,287.8z
	 M276.7,295.6l-36.9-39.5l5.7-5.8v-6.6c2.4-5.2,4.8-10.6,6.7-16.2c6.3-18.6,9.5-38,9.5-57.6c0.2-31.8-5.3-63.5-16.3-93.4l31.2-16.5
	l30,27.3l-4.6,4.1c-14.7,4.4-23,19.9-18.6,34.6c1,3.2,2.5,6.1,4.5,8.8l7.3,9.6l-0.1,84v0.5c0.1,10.3,0.3,24.5,4.3,38.6
	c0.3,1.1,0.7,2.2,1,3.3L276.7,295.6z M437.4,295.6l-20.8-20.8c0,0-25.3,12.8-49.6,12.8c-7.2,0.2-14.3-1.3-20.9-4.2
	c-4.7-1.5-8.9-4.3-12.2-8l0.9-1c10.6-11.1,10.1-28.6-1-39.2c0,0-0.1-0.1-0.1-0.1l-5-4.7V117.8h71.8l11.8,11.6V95.3l-17.8-17.7
	l42.9-24.5L473,88.5l-5.7,5.8v150.9l10.3,10.4L437.4,295.6z"/>
<path class="st0" d="M146.8,84h-23.6c0,0-26.4,25.5-26.4,83.6s17.3,82.7,38.1,82.7s38.1-24.6,38.1-82.7S146.8,84,146.8,84z"/>
<path class="st0" d="M380.1,232.9c0,1.8,1.3,13,12.7,13h1.1c18.5-1,18.5-23.9,18.5-23.9v-53h-32.3V232.9z"/>
<path class="st1" d="M27.8,84.2l33.6-56.3h126.3c0,0,46.9,54.8,46.3,141.7c-0.5,72-43.9,118.3-98.8,118.1c0,0-104.2,4.5-104.6-119
	C30.3,116,52.2,91,55.9,84.2L27.8,84.2z M123.2,84.2c0,0-26.4,25.4-26.4,83.5s17.3,82.7,38.1,82.7s38.1-24.5,38.1-82.6
	s-26.3-83.5-26.3-83.5H123.2z"/>
<polygon class="st1" points="230.3,84.4 276.7,59.9 306.6,87.2 301.2,91.9 301.2,242.5 314.8,255.4 276.7,295.6 239.9,256.1 
	245.7,250.3 245.7,101.4 "/>
<path class="st1" d="M310,117.8h90.6l11.6,11.6V95.3l-17.7-17.7l42.9-24.5l35.4,35.4l-5.8,5.8v150.9l10.4,10.4l-40,40l-20.8-20.8
	c0,0-42.9,21.7-70.5,8.6c-22.8-7.5-23.2-37.2-23.4-55.2l0.2-93.4L310,117.8z M380.2,232.9c0,1.8,1.4,13.6,13.6,13
	c18.5-1,18.4-23.9,18.4-23.9v-53.2h-32L380.2,232.9z"/>
</svg>
